<svg xmlns="http://www.w3.org/2000/svg" style="display:none">
  <symbol id="icon-calc" viewBox="0 0 24 24">
    <rect x="5" y="3" width="14" height="18" rx="2" fill="none" stroke="currentColor" stroke-width="1.8"/>
    <path d="M8 7h8M8 11h2M12 11h2M16 11h0M8 15h2M12 15h2M16 15h0" stroke="currentColor" stroke-width="1.8" stroke-linecap="round"/>
  </symbol>
  <symbol id="icon-sync" viewBox="0 0 24 24">
    <path d="M7 7a7 7 0 0 1 11 2M17 7h2V5M17 17a7 7 0 0 1-11-2M7 17H5v2" fill="none" stroke="currentColor" stroke-width="1.8" stroke-linecap="round" stroke-linejoin="round"/>
  </symbol>
  <symbol id="icon-ar" viewBox="0 0 24 24">
    <path d="M12 3 4 7v10l8 4 8-4V7l-8-4Z" fill="none" stroke="currentColor" stroke-width="1.8" stroke-linejoin="round"/>
    <path d="M4 7l8 4 8-4M12 11v10" fill="none" stroke="currentColor" stroke-width="1.8" stroke-linecap="round"/>
  </symbol>
  <symbol id="icon-glitch" viewBox="0 0 24 24">
    <path d="M4 7h9l-2 4h9M20 17h-9l2-4H4" fill="none" stroke="currentColor" stroke-width="1.8" stroke-linecap="round" stroke-linejoin="round"/>
  </symbol>
  <symbol id="icon-community" viewBox="0 0 24 24">
    <circle cx="8" cy="9" r="3" fill="none" stroke="currentColor" stroke-width="1.8"/>
    <circle cx="17" cy="10" r="2.5" fill="none" stroke="currentColor" stroke-width="1.8"/>
    <path d="M3 20c1-4 9-4 10 0M13 19c1-3 6-3 8 0" fill="none" stroke="currentColor" stroke-width="1.8" stroke-linecap="round"/>
  </symbol>
</svg>
